<svg width="360" height="360" viewBox="0 0 360 360" fill="none" xmlns="http://www.w3.org/2000/svg" role="img" aria-label="Chocolate oscuro">
  <defs>
    <radialGradient id="a" cx="50%" cy="44%" r="66%"><stop offset="0" stop-color="#FFD58A" stop-opacity=".32"/><stop offset="1" stop-color="#160906" stop-opacity="0"/></radialGradient>
    <linearGradient id="b" x1="139" y1="83" x2="224" y2="257"><stop stop-color="#9A552C"/><stop offset=".45" stop-color="#3A140B"/><stop offset="1" stop-color="#100403"/></linearGradient>
    <filter id="s"><feDropShadow dx="0" dy="18" stdDeviation="18" flood-opacity=".45"/></filter>
  </defs>
  <rect width="360" height="360" rx="44" fill="#20100A"/>
  <rect x="18" y="18" width="324" height="324" rx="36" fill="url(#a)"/>
  <g filter="url(#s)">
    <ellipse cx="180" cy="269" rx="95" ry="30" fill="#E8AD62"/>
    <ellipse cx="180" cy="260" rx="72" ry="21" fill="#21100A" opacity=".7"/>
    <path d="M120 119c0-34 27-61 60-61s60 27 60 61v134c0 27-22 49-49 49h-22c-27 0-49-22-49-49V119Z" fill="url(#b)"/>
    <path d="M120 128c18 13 36-9 58 5 20 12 40 7 62-8v47c-22 15-42 20-62 8-22-14-40 8-58-5v-47Z" fill="#A95429" opacity=".7"/>
    <ellipse cx="180" cy="120" rx="60" ry="25" fill="#B86635"/>
    <ellipse cx="180" cy="118" rx="42" ry="14" fill="#2A0D07" opacity=".7"/>
    <path d="M180 53c-15 24-2 37 0 50 13-20 34-34 0-50Z" fill="#FFD58A"/>
    <path d="M180 82V50" stroke="#FFF1D0" stroke-width="3" stroke-linecap="round"/>
  </g>
  <path d="M70 253c39 22 76 39 110 39s73-16 110-39" stroke="#FFE3A4" stroke-opacity=".34" stroke-width="2"/>
</svg>
