<svg width="360" height="360" viewBox="0 0 360 360" fill="none" xmlns="http://www.w3.org/2000/svg" role="img" aria-label="Chocolate con leche">
  <defs>
    <radialGradient id="a" cx="50%" cy="44%" r="66%"><stop offset="0" stop-color="#FFF1D0" stop-opacity=".38"/><stop offset="1" stop-color="#160906" stop-opacity="0"/></radialGradient>
    <linearGradient id="b" x1="139" y1="83" x2="224" y2="257"><stop stop-color="#D79257"/><stop offset=".45" stop-color="#8A4727"/><stop offset="1" stop-color="#35140B"/></linearGradient>
    <filter id="s"><feDropShadow dx="0" dy="18" stdDeviation="18" flood-opacity=".35"/></filter>
  </defs>
  <rect width="360" height="360" rx="44" fill="#2A140B"/>
  <rect x="18" y="18" width="324" height="324" rx="36" fill="url(#a)"/>
  <g filter="url(#s)">
    <ellipse cx="180" cy="269" rx="95" ry="30" fill="#F0C173"/>
    <ellipse cx="180" cy="260" rx="72" ry="21" fill="#432113" opacity=".62"/>
    <path d="M120 119c0-34 27-61 60-61s60 27 60 61v134c0 27-22 49-49 49h-22c-27 0-49-22-49-49V119Z" fill="url(#b)"/>
    <path d="M120 128c18 13 36-9 58 5 20 12 40 7 62-8v47c-22 15-42 20-62 8-22-14-40 8-58-5v-47Z" fill="#E4A369" opacity=".78"/>
    <ellipse cx="180" cy="120" rx="60" ry="25" fill="#E8A66B"/>
    <ellipse cx="180" cy="118" rx="42" ry="14" fill="#6F341D" opacity=".55"/>
    <path d="M180 53c-15 24-2 37 0 50 13-20 34-34 0-50Z" fill="#FFD58A"/>
    <path d="M180 82V50" stroke="#FFF1D0" stroke-width="3" stroke-linecap="round"/>
  </g>
  <circle cx="86" cy="99" r="5" fill="#FFD58A" opacity=".7"/><circle cx="275" cy="112" r="4" fill="#FFD58A" opacity=".7"/>
</svg>
