<svg width="96" height="96" viewBox="0 0 96 96" fill="none" xmlns="http://www.w3.org/2000/svg" role="img" aria-labelledby="title desc">
  <title id="title">Melting Bites</title>
  <desc id="desc">Emblema circular con una vela de chocolate y brillo dorado.</desc>
  <defs>
    <radialGradient id="g" cx="50%" cy="42%" r="60%">
      <stop offset="0" stop-color="#FFF1D0"/>
      <stop offset="0.55" stop-color="#E8AD62"/>
      <stop offset="1" stop-color="#7A361C"/>
    </radialGradient>
    <linearGradient id="choco" x1="28" y1="32" x2="70" y2="76">
      <stop stop-color="#7A351D"/>
      <stop offset="0.48" stop-color="#35140B"/>
      <stop offset="1" stop-color="#150705"/>
    </linearGradient>
    <filter id="glow" x="-50%" y="-50%" width="200%" height="200%">
      <feGaussianBlur stdDeviation="3" result="b"/>
      <feMerge><feMergeNode in="b"/><feMergeNode in="SourceGraphic"/></feMerge>
    </filter>
  </defs>
  <circle cx="48" cy="48" r="44" fill="#1A0905" stroke="url(#g)" stroke-width="3"/>
  <circle cx="48" cy="48" r="36" stroke="#FFE0A3" stroke-opacity=".26" stroke-width="1"/>
  <path d="M34 35c0-7 6-12 14-12s14 5 14 12v33c0 4-3 7-7 7H41c-4 0-7-3-7-7V35Z" fill="url(#choco)"/>
  <path d="M34 39c7 4 12-3 17 1s8 1 11-2v9c-7 4-12-3-17 1s-8 1-11-2v-7Z" fill="#A94F27" opacity=".85"/>
  <path d="M48 21c-4 6-1 10 0 12 3-4 7-8 0-12Z" fill="#FFD58A" filter="url(#glow)"/>
  <path d="M48 30V18" stroke="#FFF1D0" stroke-linecap="round" stroke-width="2"/>
  <path d="M25 67c12 9 33 13 47 0" stroke="#FFD58A" stroke-opacity=".7" stroke-width="2" stroke-linecap="round"/>
  <path d="M22 31l3 6 6 3-6 3-3 6-3-6-6-3 6-3 3-6ZM74 22l2 4 4 2-4 2-2 4-2-4-4-2 4-2 2-4Z" fill="#FFD58A" opacity=".85"/>
</svg>
